<?xml version="1.0" encoding="iso-8859-1"?>
<!-- Generator: Adobe Illustrator 19.0.0, SVG Export Plug-In . SVG Version: 6.00 Build 0)  -->
<svg version="1.1" id="Layer_1" xmlns="http://www.w3.org/2000/svg" xmlns:xlink="http://www.w3.org/1999/xlink" x="0px" y="0px"
	 viewBox="0 0 484.8 484.8" style="enable-background:new 0 0 484.8 484.8;" xml:space="preserve">
<circle style="fill:#741199;" cx="242.4" cy="242.4" r="242.4"/>
<path style="fill:#3C005B;" d="M0,242.4C0,376,108,484,242.4,484C376,484,484,376,484,242.4"/>
<rect x="212.609" y="358.088" transform="matrix(-0.707 0.7072 -0.7072 -0.707 688.5939 490.8939)" style="fill:#EBFFF6;" width="59.999" height="59.999"/>
<g>
	<polyline style="fill:#D6EAE0;" points="242.4,346.4 284.8,388.8 242.4,430.4 	"/>
	<rect x="242.4" y="218.4" style="fill:#D6EAE0;" width="64" height="96"/>
</g>
<g>
	<path style="fill:#EBFFF6;" d="M394.4,220c0-80.8-71.2-148-152-148C161.6,72,96.8,138.4,96,218.4h76c0.8-40,32-70.4,70.4-70.4
		c39.2,0,76,32.8,76,72"/>
	<rect x="242.4" y="218.4" style="fill:#EBFFF6;" width="152" height="48"/>
</g>
<g>
</g>
<g>
</g>
<g>
</g>
<g>
</g>
<g>
</g>
<g>
</g>
<g>
</g>
<g>
</g>
<g>
</g>
<g>
</g>
<g>
</g>
<g>
</g>
<g>
</g>
<g>
</g>
<g>
</g>
</svg>
