<?xml version="1.0" encoding="UTF-8" standalone="no"?>
<!-- Generator: Adobe Illustrator 19.0.0, SVG Export Plug-In . SVG Version: 6.00 Build 0)  -->

<svg
   xmlns:dc="http://purl.org/dc/elements/1.1/"
   xmlns:cc="http://creativecommons.org/ns#"
   xmlns:rdf="http://www.w3.org/1999/02/22-rdf-syntax-ns#"
   xmlns:svg="http://www.w3.org/2000/svg"
   xmlns="http://www.w3.org/2000/svg"
   xmlns:sodipodi="http://sodipodi.sourceforge.net/DTD/sodipodi-0.dtd"
   xmlns:inkscape="http://www.inkscape.org/namespaces/inkscape"
   version="1.1"
   id="Layer_1"
   x="0px"
   y="0px"
   viewBox="0 0 495.2 495.2"
   style="enable-background:new 0 0 495.2 495.2;"
   xml:space="preserve"
   sodipodi:docname="pacsync.svg"
   inkscape:version="0.92.1 r"><metadata
     id="metadata176"><rdf:RDF><cc:Work
         rdf:about=""><dc:format>image/svg+xml</dc:format><dc:type
           rdf:resource="http://purl.org/dc/dcmitype/StillImage" /><dc:title /></cc:Work></rdf:RDF></metadata><defs
     id="defs174" /><sodipodi:namedview
     pagecolor="#ffffff"
     bordercolor="#666666"
     borderopacity="1"
     objecttolerance="10"
     gridtolerance="10"
     guidetolerance="10"
     inkscape:pageopacity="0"
     inkscape:pageshadow="2"
     inkscape:window-width="1920"
     inkscape:window-height="1006"
     id="namedview172"
     showgrid="false"
     inkscape:zoom="1.1409093"
     inkscape:cx="253.11281"
     inkscape:cy="261.58681"
     inkscape:window-x="1366"
     inkscape:window-y="0"
     inkscape:window-maximized="1"
     inkscape:current-layer="Layer_1" /><polygon
     style="fill:#D38C0D;"
     points="325.6,224.4 495.2,126 325.6,28.4 156.8,127.6 "
     id="polygon113" /><g
     id="g119"><polygon
       style="fill:#EFBB67;"
       points="170.4,224.4 338.4,126.8 170.4,28.4 0,126.8  "
       id="polygon115" /><polygon
       style="fill:#EFBB67;"
       points="416,368.4 248,466.8 80,368.4 80,172.4 248,74 416,172.4  "
       id="polygon117" /></g><polyline
     style="fill:#D38C0D;"
     points="248,74 416,172.4 416,368.4 248,466.8 "
     id="polyline121" /><polygon
     style="fill:#704A0E;"
     points="248.8,270.8 416,172.4 248.8,74 78.4,172.4 "
     id="polygon127" /><polyline
     style="fill:#513307;"
     points="248.8,270.8 416,172.4 248.8,74 "
     id="polyline129" /><polygon
     style="fill:#2D1C05;"
     points="248.8,270.8 284.8,249.2 248.8,228.4 212.8,249.2 "
     id="polygon131" /><g
     id="g261"
     transform="matrix(0.56471932,0,0,0.56471932,108.53633,3.979821)"><path
       id="path191"
       d="M 12.8,402.4 C 26.4,375.2 51.2,353.6 80.8,344.8 56,285.6 52.8,218.4 77.6,159.2 32.8,173.6 0,216 0,264.8 v 88.8 c 0,17.6 5.6,34.4 12.8,48.8 z"
       style="fill:#00665c"
       inkscape:connector-curvature="0" /><path
       id="path193"
       d="m 376,376 -92.8,96 h -172 C 49.6,472 0,420.8 0,359.2 v -88.8 c 0,-17.6 3.2,-36 10.4,-50.4 17.6,36 56.8,60 100.8,60 H 224 v 0 h 59.2 z"
       style="fill:#23c181"
       inkscape:connector-curvature="0" /><path
       id="path195"
       d="M 0,360 V 270.4 C 0,252.8 1.6,236 10.4,220 28,256 67.2,280 111.2,280 H 224 v 0 h 59.2 l 92.8,96 -92.8,96"
       style="fill:#0d9b79"
       inkscape:connector-curvature="0" /><path
       id="path197"
       d="m 483.2,93.6 c -13.6,27.2 -38.4,48.8 -68,57.6 25.6,59.2 28,126.4 3.2,185.6 44.8,-14.4 77.6,-56 77.6,-105.6 v -89.6 c 0,-16.8 -5.6,-33.6 -12.8,-48 z"
       style="fill:#053a51"
       inkscape:connector-curvature="0" /><path
       id="path199"
       d="m 120,120 92.8,-96 h 172 C 446.4,24 496,75.2 496,136.8 v 88.8 c 0,17.6 -4,36 -11.2,50.4 -18.4,-36.8 -56,-60.8 -100,-60.8 H 272 v 0 h -59.2 z"
       style="fill:#149fdd"
       inkscape:connector-curvature="0" /><path
       id="path201"
       d="m 496,136 v 89.6 c 0,17.6 -1.6,32.8 -10.4,52 C 467.2,240.8 428.8,216 384.8,216 H 272 v 0 H 212.8 L 120,120 212.8,24"
       style="fill:#0e75af"
       inkscape:connector-curvature="0" /><g
       id="g203" /><g
       id="g205" /><g
       id="g207" /><g
       id="g209" /><g
       id="g211" /><g
       id="g213" /><g
       id="g215" /><g
       id="g217" /><g
       id="g219" /><g
       id="g221" /><g
       id="g223" /><g
       id="g225" /><g
       id="g227" /><g
       id="g229" /><g
       id="g231" /></g><g
     id="g139"><polygon
       style="fill:#0DD396;"
       points="368,379.6 408,356.4 408,343.6 368,366.8  "
       id="polygon133" /><polygon
       style="fill:#0DD396;"
       points="368,356.4 408,333.2 408,320.4 368,343.6  "
       id="polygon135" /><polygon
       style="fill:#0DD396;"
       points="368,333.2 408,310 408,296.4 368,320.4  "
       id="polygon137" /></g><g
     id="g141" /><g
     id="g143" /><g
     id="g145" /><g
     id="g147" /><g
     id="g149" /><g
     id="g151" /><g
     id="g153" /><g
     id="g155" /><g
     id="g157" /><g
     id="g159" /><g
     id="g161" /><g
     id="g163" /><g
     id="g165" /><g
     id="g167" /><g
     id="g169" /><path
     style="fill:#EFBB67;"
     d="M 416.01758 172.06055 L 248.46484 270.52734 L 326.40039 314.80078 L 495.19922 218 L 416.01758 172.06055 z M 156.28125 217.83594 L 156 218 L 190.73438 237.73242 L 156.28125 217.83594 z "
     id="polygon123" /><path
     style="fill:#D38C0D;"
     d="M 78.683594 172.5625 L 0 218 L 170.40039 316.40039 L 248.39258 270.56445 L 78.683594 172.5625 z "
     id="polygon125" /></svg>