<?xml version="1.0" encoding="UTF-8" standalone="no"?>
<!-- Generator: Adobe Illustrator 19.0.0, SVG Export Plug-In . SVG Version: 6.00 Build 0)  -->

<svg
   xmlns:dc="http://purl.org/dc/elements/1.1/"
   xmlns:cc="http://creativecommons.org/ns#"
   xmlns:rdf="http://www.w3.org/1999/02/22-rdf-syntax-ns#"
   xmlns:svg="http://www.w3.org/2000/svg"
   xmlns="http://www.w3.org/2000/svg"
   xmlns:sodipodi="http://sodipodi.sourceforge.net/DTD/sodipodi-0.dtd"
   xmlns:inkscape="http://www.inkscape.org/namespaces/inkscape"
   version="1.1"
   id="Layer_1"
   x="0px"
   y="0px"
   viewBox="0 0 495.2 495.2"
   style="enable-background:new 0 0 495.2 495.2;"
   xml:space="preserve"
   sodipodi:docname="main.svg"
   inkscape:version="0.92.1 r"><metadata
     id="metadata176"><rdf:RDF><cc:Work
         rdf:about=""><dc:format>image/svg+xml</dc:format><dc:type
           rdf:resource="http://purl.org/dc/dcmitype/StillImage" /><dc:title></dc:title></cc:Work></rdf:RDF></metadata><defs
     id="defs174" /><sodipodi:namedview
     pagecolor="#ffffff"
     bordercolor="#666666"
     borderopacity="1"
     objecttolerance="10"
     gridtolerance="10"
     guidetolerance="10"
     inkscape:pageopacity="0"
     inkscape:pageshadow="2"
     inkscape:window-width="1920"
     inkscape:window-height="1006"
     id="namedview172"
     showgrid="false"
     inkscape:zoom="1.1409093"
     inkscape:cx="132.04319"
     inkscape:cy="264.63649"
     inkscape:window-x="1366"
     inkscape:window-y="0"
     inkscape:window-maximized="1"
     inkscape:current-layer="Layer_1" /><polygon
     style="fill:#D38C0D;"
     points="325.6,224.4 495.2,126 325.6,28.4 156.8,127.6 "
     id="polygon113" /><g
     id="g119"><polygon
       style="fill:#EFBB67;"
       points="170.4,224.4 338.4,126.8 170.4,28.4 0,126.8  "
       id="polygon115" /><polygon
       style="fill:#EFBB67;"
       points="416,368.4 248,466.8 80,368.4 80,172.4 248,74 416,172.4  "
       id="polygon117" /></g><polyline
     style="fill:#D38C0D;"
     points="248,74 416,172.4 416,368.4 248,466.8 "
     id="polyline121" /><polygon
     style="fill:#704A0E;"
     points="248.8,270.8 416,172.4 248.8,74 78.4,172.4 "
     id="polygon127" /><polyline
     style="fill:#513307;"
     points="248.8,270.8 416,172.4 248.8,74 "
     id="polyline129" /><polygon
     style="fill:#2D1C05;"
     points="248.8,270.8 284.8,249.2 248.8,228.4 212.8,249.2 "
     id="polygon131" /><g
     id="g139"><polygon
       style="fill:#0DD396;"
       points="368,379.6 408,356.4 408,343.6 368,366.8  "
       id="polygon133" /><polygon
       style="fill:#0DD396;"
       points="368,356.4 408,333.2 408,320.4 368,343.6  "
       id="polygon135" /><polygon
       style="fill:#0DD396;"
       points="368,333.2 408,310 408,296.4 368,320.4  "
       id="polygon137" /></g><g
     id="g141" /><g
     id="g143" /><g
     id="g145" /><g
     id="g147" /><g
     id="g149" /><g
     id="g151" /><g
     id="g153" /><g
     id="g155" /><g
     id="g157" /><g
     id="g159" /><g
     id="g161" /><g
     id="g163" /><g
     id="g165" /><g
     id="g167" /><g
     id="g169" /><g
     id="g405"
     transform="matrix(0.51460461,0,0,0.51460461,119.32548,15.556113)"><path
       id="path332"
       d="m 114,12 c 26.4,12.8 46.4,36.8 55.2,65.6 C 226,53.6 290,50.4 346.8,74.4 333.2,32 293.2,0 246,0 h -85.6 c -16.8,0 -32,5.6 -46.4,12 z"
       style="fill:#00665c"
       inkscape:connector-curvature="0" /><path
       id="path334"
       d="m 136.4,360 -88,-88.8 V 106.4 C 48.4,48 97.2,0 155.6,0 h 85.6 C 258,0 272.4,4 286,11.2 250.8,28 224.4,64 224.4,106.4 v 101.6 0 63.2 z"
       style="fill:#16db9a"
       inkscape:connector-curvature="0" /><path
       id="path336"
       d="m 152.4,0 h 88.8 C 258,0 272.4,0.8 290,9.6 254,27.2 224.4,64 224.4,106.4 v 101.6 0 63.2 l -88,88.8 -88,-88.8"
       style="fill:#23c181"
       inkscape:connector-curvature="0" /><path
       id="path338"
       d="m 360.4,136 88,88.8 V 389.6 C 448.4,448 399.6,496 341.2,496 h -85.6 c -16.8,0 -31.2,-4 -44.8,-11.2 35.2,-17.6 61.6,-53.6 61.6,-96 V 288 v 0 -63.2 z"
       style="fill:#00665c"
       inkscape:connector-curvature="0" /><path
       id="path340"
       d="M 448.4,389.6 C 448.4,448 399.6,496 341.2,496 h -85.6 c -16.8,0 -31.2,-4 -44.8,-11.2 35.2,-17.6 61.6,-53.6 61.6,-96 V 288 v 0 -56"
       style="fill:#034f4d"
       inkscape:connector-curvature="0" /><path
       id="path342"
       d="m 387.6,485.6 c -26.4,-12.8 -52,-38.4 -60,-66.4 -56.8,24 -120.8,26.4 -177.6,2.4 13.6,42.4 54.4,75.2 101.6,75.2 h 89.6 C 358,496 374,492 387.6,485.6 Z"
       style="fill:#16db9a"
       inkscape:connector-curvature="0" /><path
       id="path344"
       d="m 251.6,496 h 89.6 c 16.8,0 32.8,-4 46.4,-11.2 -26.4,-12.8 -52,-38.4 -60,-66.4"
       style="fill:#23c181"
       inkscape:connector-curvature="0" /><g
       id="g346" /><g
       id="g348" /><g
       id="g350" /><g
       id="g352" /><g
       id="g354" /><g
       id="g356" /><g
       id="g358" /><g
       id="g360" /><g
       id="g362" /><g
       id="g364" /><g
       id="g366" /><g
       id="g368" /><g
       id="g370" /><g
       id="g372" /><g
       id="g374" /></g><path
     style="fill:#EFBB67;"
     d="M 416.01758 172.06055 L 248.46484 270.52734 L 326.40039 314.80078 L 495.19922 218 L 416.01758 172.06055 z M 156.28125 217.83594 L 156 218 L 190.73438 237.73242 L 156.28125 217.83594 z "
     id="polygon123" /><path
     style="fill:#D38C0D;"
     d="M 78.683594 172.5625 L 0 218 L 170.40039 316.40039 L 248.39258 270.56445 L 78.683594 172.5625 z "
     id="polygon125" /></svg>