<?xml version="1.0" encoding="UTF-8" standalone="no"?>
<!-- Generator: Adobe Illustrator 19.0.0, SVG Export Plug-In . SVG Version: 6.00 Build 0)  -->

<svg
   xmlns:dc="http://purl.org/dc/elements/1.1/"
   xmlns:cc="http://creativecommons.org/ns#"
   xmlns:rdf="http://www.w3.org/1999/02/22-rdf-syntax-ns#"
   xmlns:svg="http://www.w3.org/2000/svg"
   xmlns="http://www.w3.org/2000/svg"
   xmlns:sodipodi="http://sodipodi.sourceforge.net/DTD/sodipodi-0.dtd"
   xmlns:inkscape="http://www.inkscape.org/namespaces/inkscape"
   version="1.1"
   id="Layer_1"
   x="0px"
   y="0px"
   viewBox="0 0 495.2 495.2"
   style="enable-background:new 0 0 495.2 495.2;"
   xml:space="preserve"
   sodipodi:docname="pacsync_install.svg"
   inkscape:version="0.92.1 r"><metadata
     id="metadata176"><rdf:RDF><cc:Work
         rdf:about=""><dc:format>image/svg+xml</dc:format><dc:type
           rdf:resource="http://purl.org/dc/dcmitype/StillImage" /><dc:title></dc:title></cc:Work></rdf:RDF></metadata><defs
     id="defs174" /><sodipodi:namedview
     pagecolor="#ffffff"
     bordercolor="#666666"
     borderopacity="1"
     objecttolerance="10"
     gridtolerance="10"
     guidetolerance="10"
     inkscape:pageopacity="0"
     inkscape:pageshadow="2"
     inkscape:window-width="1366"
     inkscape:window-height="695"
     id="namedview172"
     showgrid="false"
     inkscape:zoom="0.035653416"
     inkscape:cx="-2529.104"
     inkscape:cy="2673.847"
     inkscape:window-x="0"
     inkscape:window-y="560"
     inkscape:window-maximized="1"
     inkscape:current-layer="Layer_1" /><polygon
     style="fill:#D38C0D;"
     points="325.6,224.4 495.2,126 325.6,28.4 156.8,127.6 "
     id="polygon113" /><g
     id="g119"><polygon
       style="fill:#EFBB67;"
       points="170.4,224.4 338.4,126.8 170.4,28.4 0,126.8  "
       id="polygon115" /><polygon
       style="fill:#EFBB67;"
       points="416,368.4 248,466.8 80,368.4 80,172.4 248,74 416,172.4  "
       id="polygon117" /></g><polyline
     style="fill:#D38C0D;"
     points="248,74 416,172.4 416,368.4 248,466.8 "
     id="polyline121" /><polygon
     style="fill:#704A0E;"
     points="248.8,270.8 416,172.4 248.8,74 78.4,172.4 "
     id="polygon127" /><polyline
     style="fill:#513307;"
     points="248.8,270.8 416,172.4 248.8,74 "
     id="polyline129" /><polygon
     style="fill:#2D1C05;"
     points="248.8,270.8 284.8,249.2 248.8,228.4 212.8,249.2 "
     id="polygon131" /><g
     id="g139"><polygon
       style="fill:#0DD396;"
       points="368,379.6 408,356.4 408,343.6 368,366.8  "
       id="polygon133" /><polygon
       style="fill:#0DD396;"
       points="368,356.4 408,333.2 408,320.4 368,343.6  "
       id="polygon135" /><polygon
       style="fill:#0DD396;"
       points="368,333.2 408,310 408,296.4 368,320.4  "
       id="polygon137" /></g><g
     id="g141" /><g
     id="g143" /><g
     id="g145" /><g
     id="g147" /><g
     id="g149" /><g
     id="g151" /><g
     id="g153" /><g
     id="g155" /><g
     id="g157" /><g
     id="g159" /><g
     id="g161" /><g
     id="g163" /><g
     id="g165" /><g
     id="g167" /><g
     id="g169" /><g
     id="g241"
     transform="matrix(0.53716494,0,0,0.53716494,127.18586,10.096168)"><circle
       id="circle171"
       r="242.39999"
       cy="242.39999"
       cx="242.39999"
       style="fill:#053a51" /><path
       id="path173"
       d="M 0,242.4 C 0,376 108,484 242.4,484 376,484 484,376 484,242.4"
       style="fill:#001319"
       inkscape:connector-curvature="0" /><polygon
       id="polygon175"
       points="226.4,78.4 390.4,242.4 226.4,406.4 226.4,314.4 298.4,242.4 226.4,170.4 "
       style="fill:#30e295" /><polyline
       id="polyline177"
       points="390.4,242.4 226.4,406.4 226.4,314.4 298.4,242.4 226.4,170.4 "
       style="fill:#23c181" /><rect
       id="rect179"
       height="101.599"
       width="101.599"
       style="fill:#30e295"
       transform="matrix(-0.7071,-0.7071,0.7071,-0.7071,108.4476,530.4489)"
       y="191.965"
       x="113.284" /><polyline
       id="polyline181"
       points="236,242.4 164,314.4 92.8,242.4 "
       style="fill:#23c181" /><g
       id="g183" /><g
       id="g185" /><g
       id="g187" /><g
       id="g189" /><g
       id="g191" /><g
       id="g193" /><g
       id="g195" /><g
       id="g197" /><g
       id="g199" /><g
       id="g201" /><g
       id="g203" /><g
       id="g205" /><g
       id="g207" /><g
       id="g209" /><g
       id="g211" /></g><path
     style="fill:#EFBB67;"
     d="M 416.01758 172.06055 L 248.46484 270.52734 L 326.40039 314.80078 L 495.19922 218 L 416.01758 172.06055 z M 156.28125 217.83594 L 156 218 L 190.73438 237.73242 L 156.28125 217.83594 z "
     id="polygon123" /><path
     style="fill:#D38C0D;"
     d="M 78.683594 172.5625 L 0 218 L 170.40039 316.40039 L 248.39258 270.56445 L 78.683594 172.5625 z "
     id="polygon125" /></svg>