<?xml version="1.0" encoding="UTF-8" standalone="no"?>
<!-- Generator: Adobe Illustrator 19.0.0, SVG Export Plug-In . SVG Version: 6.00 Build 0)  -->

<svg
   xmlns:dc="http://purl.org/dc/elements/1.1/"
   xmlns:cc="http://creativecommons.org/ns#"
   xmlns:rdf="http://www.w3.org/1999/02/22-rdf-syntax-ns#"
   xmlns:svg="http://www.w3.org/2000/svg"
   xmlns="http://www.w3.org/2000/svg"
   xmlns:sodipodi="http://sodipodi.sourceforge.net/DTD/sodipodi-0.dtd"
   xmlns:inkscape="http://www.inkscape.org/namespaces/inkscape"
   version="1.1"
   id="Layer_1"
   x="0px"
   y="0px"
   viewBox="0 0 495.2 495.2"
   style="enable-background:new 0 0 495.2 495.2;"
   xml:space="preserve"
   sodipodi:docname="paxchange_error.svg"
   inkscape:version="0.92.1 r"><metadata
     id="metadata176"><rdf:RDF><cc:Work
         rdf:about=""><dc:format>image/svg+xml</dc:format><dc:type
           rdf:resource="http://purl.org/dc/dcmitype/StillImage" /><dc:title /></cc:Work></rdf:RDF></metadata><defs
     id="defs174" /><sodipodi:namedview
     pagecolor="#ffffff"
     bordercolor="#666666"
     borderopacity="1"
     objecttolerance="10"
     gridtolerance="10"
     guidetolerance="10"
     inkscape:pageopacity="0"
     inkscape:pageshadow="2"
     inkscape:window-width="1366"
     inkscape:window-height="693"
     id="namedview172"
     showgrid="false"
     inkscape:zoom="0.45254834"
     inkscape:cx="-502.93919"
     inkscape:cy="174.88391"
     inkscape:window-x="0"
     inkscape:window-y="0"
     inkscape:window-maximized="1"
     inkscape:current-layer="Layer_1" /><polygon
     style="fill:#D38C0D;"
     points="325.6,224.4 495.2,126 325.6,28.4 156.8,127.6 "
     id="polygon113" /><g
     id="g119"><polygon
       style="fill:#EFBB67;"
       points="170.4,224.4 338.4,126.8 170.4,28.4 0,126.8  "
       id="polygon115" /><polygon
       style="fill:#EFBB67;"
       points="416,368.4 248,466.8 80,368.4 80,172.4 248,74 416,172.4  "
       id="polygon117" /></g><polyline
     style="fill:#D38C0D;"
     points="248,74 416,172.4 416,368.4 248,466.8 "
     id="polyline121" /><polygon
     style="fill:#704A0E;"
     points="248.8,270.8 416,172.4 248.8,74 78.4,172.4 "
     id="polygon127" /><polyline
     style="fill:#513307;"
     points="248.8,270.8 416,172.4 248.8,74 "
     id="polyline129" /><polygon
     style="fill:#2D1C05;"
     points="248.8,270.8 284.8,249.2 248.8,228.4 212.8,249.2 "
     id="polygon131" /><g
     id="g139"><polygon
       style="fill:#0DD396;"
       points="368,379.6 408,356.4 408,343.6 368,366.8  "
       id="polygon133" /><polygon
       style="fill:#0DD396;"
       points="368,356.4 408,333.2 408,320.4 368,343.6  "
       id="polygon135" /><polygon
       style="fill:#0DD396;"
       points="368,333.2 408,310 408,296.4 368,320.4  "
       id="polygon137" /></g><g
     id="g141" /><g
     id="g143" /><g
     id="g145" /><g
     id="g147" /><g
     id="g149" /><g
     id="g151" /><g
     id="g153" /><g
     id="g155" /><g
     id="g157" /><g
     id="g159" /><g
     id="g161" /><g
     id="g163" /><g
     id="g165" /><g
     id="g167" /><g
     id="g169" /><g
     id="g105"
     transform="matrix(0.52805282,0,0,0.52805282,120.5,14.700012)"><circle
       id="circle35"
       r="242.39999"
       cy="242.39999"
       cx="242.39999"
       style="fill:#c42014" /><path
       id="path37"
       d="M 0,242.4 C 0,376 108,484 242.4,484 376,484 484,376 484,242.4"
       style="fill:#840202"
       inkscape:connector-curvature="0" /><polygon
       id="polygon39"
       points="216.8,306.4 197.6,66.4 287.2,66.4 268,306.4 "
       style="fill:#ebfff6" /><polyline
       id="polyline41"
       points="288,64.8 268,306.4 218.4,306.4 "
       style="fill:#d6eae0" /><rect
       id="rect43"
       height="59.999001"
       width="59.999001"
       style="fill:#ebfff6"
       transform="matrix(-0.707,0.7072,-0.7072,-0.707,680.122,470.4758)"
       y="346.12399"
       x="212.603" /><polyline
       id="polyline45"
       points="242.4,334.4 284.8,376.8 242.4,418.4 "
       style="fill:#d6eae0" /><g
       id="g47" /><g
       id="g49" /><g
       id="g51" /><g
       id="g53" /><g
       id="g55" /><g
       id="g57" /><g
       id="g59" /><g
       id="g61" /><g
       id="g63" /><g
       id="g65" /><g
       id="g67" /><g
       id="g69" /><g
       id="g71" /><g
       id="g73" /><g
       id="g75" /></g><path
     style="fill:#EFBB67;"
     d="M 416.01758 172.06055 L 248.46484 270.52734 L 326.40039 314.80078 L 495.19922 218 L 416.01758 172.06055 z M 156.28125 217.83594 L 156 218 L 190.73438 237.73242 L 156.28125 217.83594 z "
     id="polygon123" /><path
     style="fill:#D38C0D;"
     d="M 78.683594 172.5625 L 0 218 L 170.40039 316.40039 L 248.39258 270.56445 L 78.683594 172.5625 z "
     id="polygon125" /></svg>