<?xml version="1.0" encoding="iso-8859-1"?>
<!-- Generator: Adobe Illustrator 19.0.0, SVG Export Plug-In . SVG Version: 6.00 Build 0)  -->
<svg version="1.1" id="Layer_1" xmlns="http://www.w3.org/2000/svg" xmlns:xlink="http://www.w3.org/1999/xlink" x="0px" y="0px"
	 viewBox="0 0 496 496" style="enable-background:new 0 0 496 496;" xml:space="preserve">
<path style="fill:#00665C;" d="M12.8,402.4c13.6-27.2,38.4-48.8,68-57.6c-24.8-59.2-28-126.4-3.2-185.6C32.8,173.6,0,216,0,264.8
	v88.8C0,371.2,5.6,388,12.8,402.4z"/>
<path style="fill:#23C181;" d="M376,376l-92.8,96h-172C49.6,472,0,420.8,0,359.2v-88.8c0-17.6,3.2-36,10.4-50.4
	c17.6,36,56.8,60,100.8,60H224l0,0h59.2L376,376z"/>
<path style="fill:#0D9B79;" d="M0,360v-89.6C0,252.8,1.6,236,10.4,220c17.6,36,56.8,60,100.8,60H224l0,0h59.2l92.8,96l-92.8,96"/>
<path style="fill:#053A51;" d="M483.2,93.6c-13.6,27.2-38.4,48.8-68,57.6c25.6,59.2,28,126.4,3.2,185.6
	c44.8-14.4,77.6-56,77.6-105.6v-89.6C496,124.8,490.4,108,483.2,93.6z"/>
<path style="fill:#149FDD;" d="M120,120l92.8-96h172C446.4,24,496,75.2,496,136.8v88.8c0,17.6-4,36-11.2,50.4
	c-18.4-36.8-56-60.8-100-60.8H272l0,0h-59.2L120,120z"/>
<path style="fill:#0E75AF;" d="M496,136v89.6c0,17.6-1.6,32.8-10.4,52c-18.4-36.8-56.8-61.6-100.8-61.6H272l0,0h-59.2L120,120
	l92.8-96"/>
<g>
</g>
<g>
</g>
<g>
</g>
<g>
</g>
<g>
</g>
<g>
</g>
<g>
</g>
<g>
</g>
<g>
</g>
<g>
</g>
<g>
</g>
<g>
</g>
<g>
</g>
<g>
</g>
<g>
</g>
</svg>
